<?xml version="1.0" encoding="UTF-8" standalone="no"?>
<svg
   xmlns:dc="http://purl.org/dc/elements/1.1/"
   xmlns:cc="http://creativecommons.org/ns#"
   xmlns:rdf="http://www.w3.org/1999/02/22-rdf-syntax-ns#"
   xmlns:svg="http://www.w3.org/2000/svg"
   xmlns="http://www.w3.org/2000/svg"
   viewBox="0 0 377.94666 226.772"
   height="226.772"
   width="377.94666"
   xml:space="preserve"
   id="svg2"
   version="1.1"><metadata
     id="metadata8"><rdf:RDF><cc:Work
         rdf:about=""><dc:format>image/svg+xml</dc:format><dc:type
           rdf:resource="http://purl.org/dc/dcmitype/StillImage" /><dc:title></dc:title></cc:Work></rdf:RDF></metadata><defs
     id="defs6"><clipPath
       id="clipPath18"
       clipPathUnits="userSpaceOnUse"><path
         id="path16"
         d="M 0,170.079 H 283.46 V 0 H 0 Z" /></clipPath><clipPath
       id="clipPath26"
       clipPathUnits="userSpaceOnUse"><path
         id="path24"
         d="M 22.4589,153.147 H 189.077 V 13.3746 H 22.4589 Z" /></clipPath><clipPath
       id="clipPath58"
       clipPathUnits="userSpaceOnUse"><path
         id="path56"
         d="M 0,170.079 H 283.46 V 0 H 0 Z" /></clipPath></defs><g
     transform="matrix(1.3333333,0,0,-1.3333333,0,226.772)"
     id="g10"><g
       id="g12"><g
         clip-path="url(#clipPath18)"
         id="g14"><g
           id="g20"><g
             id="g22" /><g
             id="g34"><g
               style="opacity:0.80000299"
               id="g32"
               clip-path="url(#clipPath26)"><g
                 id="g30"
                 transform="translate(181.96,49.1178)"><path
                   id="path28"
                   style="fill:#000804;fill-opacity:1;fill-rule:nonzero;stroke:none"
                   d="m 0,0 c 5.207,-10.924 6.219,-19.813 1.925,-24.832 -10.592,-12.38 -49.446,3.48 -86.783,35.424 -37.337,31.943 -59.019,67.874 -48.429,80.253 5.887,6.881 20.507,5.034 38.741,-3.445 -29.315,16.31 -54.017,21.62 -62.194,11.439 -11.703,-14.57 14.873,-55.347 59.359,-91.077 C -52.896,-27.969 -7.346,-45.123 4.357,-30.553 9.353,-24.333 7.369,-13.338 0,0" /></g></g></g></g></g></g><g
       transform="translate(251.5088,119.5567)"
       id="g36"><path
         id="path38"
         style="fill:#00801a;fill-opacity:1;fill-rule:evenodd;stroke:none"
         d="M 0,0 H 0.535 V 3.786 H 1.51 V 4.249 H -0.973 V 3.786 l 0.973,0 z" /></g><g
       transform="translate(253.6025,119.5567)"
       id="g40"><path
         id="path42"
         style="fill:#00801a;fill-opacity:1;fill-rule:evenodd;stroke:none"
         d="M 0,0 H 0.51 V 3.665 H 0.523 L 1.679,0 H 2.068 L 3.273,3.665 H 3.286 V 0 H 3.797 V 4.249 H 2.993 L 1.904,0.872 H 1.891 L 0.826,4.249 H 0 Z" /></g><g
       transform="translate(131.4722,123.8502)"
       id="g44"><path
         id="path46"
         style="fill:#ff8000;fill-opacity:1;fill-rule:evenodd;stroke:none"
         d="M 0,0 -1.756,-11.415 H -17.567 L -15.77,0 Z" /></g><g
       transform="translate(112.7285,101.5904)"
       id="g48"><path
         id="path50"
         style="fill:#00801a;fill-opacity:1;fill-rule:evenodd;stroke:none"
         d="M 0,0 -5.455,-34.303 H 9.94 l 5.339,34.292 z" /></g><g
       id="g52"><g
         clip-path="url(#clipPath58)"
         id="g54"><g
           transform="translate(182.6406,101.5792)"
           id="g60"><path
             id="path62"
             style="fill:#00801a;fill-opacity:1;fill-rule:evenodd;stroke:none"
             d="m 0,0 c 0.221,-1.956 0.759,-3.531 1.603,-5.049 1.522,-2.698 3.801,-4.871 6.432,-7.195 0.865,-0.673 1.658,-1.349 2.203,-2.174 0.62,-0.825 0.914,-1.798 0.701,-3.147 -0.392,-2.475 -2.994,-3.749 -5.092,-3.749 -3.899,0 -7.073,3.148 -8.673,6.296 l -2.803,-17.689 c 3.362,-1.5 7.203,-2.326 11.102,-2.326 10.645,0 19.322,8.398 20.983,18.891 0.678,4.273 0.179,7.271 -1.216,9.82 -1.231,2.373 -3.134,4.241 -5.721,6.322 z" /></g><g
           transform="translate(215.6416,67.2877)"
           id="g64"><path
             id="path66"
             style="fill:#00801a;fill-opacity:1;fill-rule:evenodd;stroke:none"
             d="M 0,0 H 15.294 L 20.64,34.292 H 5.527 Z" /></g><g
           transform="translate(202.8486,123.8058)"
           id="g68"><path
             id="path70"
             style="fill:#00801a;fill-opacity:1;fill-rule:evenodd;stroke:none"
             d="M 0,0 C -9.54,0 -15.319,-5.344 -18.17,-11.371 H 44.047 L 45.843,0 Z" /></g><g
           transform="translate(175.4062,112.4039)"
           id="g72"><path
             id="path74"
             style="fill:#00801a;fill-opacity:1;fill-rule:evenodd;stroke:none"
             d="M 0,0 C -1.396,8.855 -9.336,11.402 -20.062,11.402 H -34.829 L -36.644,0.031 Z" /></g><g
           transform="translate(174.4561,101.5792)"
           id="g76"><path
             id="path78"
             style="fill:#00801a;fill-opacity:1;fill-rule:evenodd;stroke:none"
             d="m 0,0 h -15.46 -6.553 -15.375 l -5.338,-34.292 h 15.248 l 2.422,15.138 c 0.44,2.774 0.729,5.548 1.094,8.32 l 0.171,0.15 4.745,-23.608 h 16.537 l -7.637,23.608 C -4.933,-8.747 -1.611,-4.745 0,0" /></g><g
           transform="translate(105.7617,112.4796)"
           id="g80"><path
             id="path82"
             style="fill:#00801a;fill-opacity:1;fill-rule:evenodd;stroke:none"
             d="m 0,0 1.95,11.371 h -27.067 l -8.429,-56.563 h 14.327 1.144 l 3.431,21.664 h 10.377 l 1.777,12.672 -10.111,-0.044 1.658,10.856 z" /></g><g
           transform="translate(107.2017,54.9713)"
           id="g84"><path
             id="path86"
             style="fill:#ff8000;fill-opacity:1;fill-rule:nonzero;stroke:none"
             d="M 0,0 H -1.722 L -0.57,8.218 H 1.152 Z" /></g><g
           transform="translate(117.7881,61.0455)"
           id="g88"><path
             id="path90"
             style="fill:#ff8000;fill-opacity:1;fill-rule:nonzero;stroke:none"
             d="m 0,0 c 0.25,-0.273 0.374,-0.647 0.374,-1.122 0,-0.174 -0.008,-0.309 -0.024,-0.403 l -0.641,-4.549 h -1.65 l 0.592,4.216 c 0.016,0.087 0.025,0.198 0.025,0.333 0,0.213 -0.038,0.357 -0.113,0.432 -0.075,0.075 -0.188,0.114 -0.338,0.114 -0.42,0 -0.871,-0.5 -1.354,-1.497 L -3.64,-6.074 h -1.651 l 0.594,4.216 c 0.016,0.158 0.024,0.264 0.024,0.32 0,0.214 -0.039,0.36 -0.119,0.439 -0.079,0.08 -0.194,0.12 -0.344,0.12 -0.222,0 -0.449,-0.141 -0.682,-0.422 -0.235,-0.282 -0.454,-0.655 -0.66,-1.122 l -0.487,-3.551 h -1.662 l 0.878,6.294 h 1.437 l -0.047,-1.069 c 0.269,0.396 0.571,0.704 0.908,0.926 0.337,0.222 0.695,0.333 1.076,0.333 0.371,0 0.682,-0.103 0.931,-0.309 0.249,-0.205 0.402,-0.503 0.458,-0.891 0.261,0.381 0.561,0.676 0.902,0.885 0.34,0.21 0.697,0.315 1.069,0.315 C -0.588,0.41 -0.25,0.273 0,0" /></g><g
           transform="translate(121.6411,59.4361)"
           id="g92"><path
             id="path94"
             style="fill:#ff8000;fill-opacity:1;fill-rule:nonzero;stroke:none"
             d="m 0,0 -0.451,-3.253 c 0.308,-0.103 0.601,-0.154 0.878,-0.154 0.396,0 0.723,0.151 0.981,0.457 0.257,0.304 0.445,0.683 0.564,1.139 0.118,0.456 0.178,0.913 0.178,1.373 0,0.807 -0.286,1.21 -0.856,1.21 C 0.867,0.772 0.436,0.515 0,0 M 3.361,1.378 C 3.693,0.95 3.86,0.345 3.86,-0.438 3.86,-1.104 3.747,-1.759 3.521,-2.404 3.295,-3.05 2.931,-3.586 2.429,-4.014 1.926,-4.44 1.287,-4.654 0.511,-4.654 c -0.42,0 -0.8,0.063 -1.14,0.189 l -0.356,-2.433 -1.662,-0.191 1.246,8.918 H 0.06 L 0.048,1.104 c 0.57,0.611 1.195,0.916 1.876,0.916 0.625,0 1.105,-0.214 1.437,-0.642" /></g><g
           transform="translate(131.3071,61.3482)"
           id="g96"><path
             id="path98"
             style="fill:#ff8000;fill-opacity:1;fill-rule:nonzero;stroke:none"
             d="m 0,0 -0.475,-1.627 c -0.19,0.048 -0.368,0.071 -0.534,0.071 -0.365,0 -0.671,-0.154 -0.92,-0.463 -0.25,-0.308 -0.481,-0.755 -0.695,-1.341 L -3.04,-6.377 h -1.663 l 0.879,6.294 h 1.437 l -0.035,-1.199 c 0.214,0.435 0.481,0.773 0.802,1.014 0.32,0.243 0.65,0.364 0.991,0.364 C -0.423,0.096 -0.213,0.063 0,0" /></g><g
           transform="translate(133.4932,59.2877)"
           id="g100"><path
             id="path102"
             style="fill:#ff8000;fill-opacity:1;fill-rule:nonzero;stroke:none"
             d="m 0,0 c -0.246,-0.605 -0.369,-1.26 -0.369,-1.965 0,-0.443 0.079,-0.767 0.238,-0.973 0.158,-0.207 0.403,-0.309 0.736,-0.309 0.412,0 0.738,0.156 0.979,0.469 0.242,0.312 0.411,0.688 0.506,1.128 0.094,0.439 0.142,0.865 0.142,1.276 0,0.443 -0.082,0.768 -0.244,0.975 C 1.826,0.806 1.583,0.909 1.258,0.909 0.665,0.909 0.245,0.606 0,0 M 3.265,1.467 C 3.716,1 3.941,0.358 3.941,-0.457 3.941,-1.091 3.829,-1.716 3.604,-2.333 3.377,-2.951 3.008,-3.467 2.493,-3.883 1.979,-4.299 1.313,-4.506 0.498,-4.506 c -0.815,0 -1.449,0.235 -1.899,0.706 -0.452,0.472 -0.678,1.122 -0.678,1.954 0,0.633 0.114,1.256 0.339,1.87 0.225,0.614 0.597,1.124 1.116,1.532 0.518,0.408 1.182,0.612 1.989,0.612 0.815,0 1.448,-0.234 1.9,-0.701" /></g><g
           transform="translate(141.4375,54.9713)"
           id="g104"><path
             id="path106"
             style="fill:#ff8000;fill-opacity:1;fill-rule:nonzero;stroke:none"
             d="m 0,0 h -1.996 l -1.14,6.294 h 1.782 L -0.82,1.318 1.092,6.294 H 2.85 Z" /></g><g
           transform="translate(147.2734,64.2633)"
           id="g108"><path
             id="path110"
             style="fill:#ff8000;fill-opacity:1;fill-rule:nonzero;stroke:none"
             d="m 0,0 c 0.162,-0.162 0.243,-0.37 0.243,-0.623 0,-0.309 -0.106,-0.57 -0.32,-0.783 -0.213,-0.214 -0.48,-0.322 -0.796,-0.322 -0.276,0 -0.498,0.083 -0.665,0.249 -0.166,0.167 -0.249,0.381 -0.249,0.642 0,0.301 0.108,0.557 0.326,0.767 0.219,0.209 0.485,0.314 0.802,0.314 C -0.382,0.244 -0.162,0.163 0,0 m -1.134,-9.292 h -1.663 l 0.879,6.294 h 1.663 z" /></g><g
           transform="translate(153.543,61.0514)"
           id="g112"><path
             id="path114"
             style="fill:#ff8000;fill-opacity:1;fill-rule:nonzero;stroke:none"
             d="m 0,0 c 0.258,-0.27 0.387,-0.646 0.387,-1.128 0,-0.126 -0.012,-0.269 -0.036,-0.428 L -0.278,-6.08 H -1.94 l 0.592,4.216 c 0.016,0.158 0.024,0.257 0.024,0.297 0,0.213 -0.039,0.364 -0.119,0.451 -0.078,0.087 -0.194,0.131 -0.344,0.131 -0.49,0 -1.005,-0.519 -1.544,-1.556 L -3.817,-6.08 h -1.662 l 0.878,6.294 h 1.437 l -0.048,-1.14 c 0.285,0.411 0.612,0.736 0.98,0.974 0.368,0.237 0.757,0.356 1.17,0.356 C -0.611,0.404 -0.257,0.27 0,0" /></g><g
           transform="translate(157.6582,59.8053)"
           id="g116"><path
             id="path118"
             style="fill:#ff8000;fill-opacity:1;fill-rule:nonzero;stroke:none"
             d="m 0,0 c -0.277,-0.285 -0.479,-0.642 -0.605,-1.069 -0.127,-0.428 -0.191,-0.864 -0.191,-1.307 0,-0.419 0.075,-0.724 0.226,-0.914 0.15,-0.189 0.348,-0.285 0.593,-0.285 0.452,0 0.904,0.316 1.355,0.95 l 0.45,2.921 C 1.576,0.384 1.314,0.427 1.045,0.427 0.625,0.427 0.277,0.284 0,0 M 3.574,1.021 2.768,-4.43 C 2.616,-5.499 2.281,-6.271 1.764,-6.745 1.245,-7.221 0.51,-7.458 -0.439,-7.458 c -0.38,0 -0.778,0.06 -1.194,0.178 -0.416,0.119 -0.79,0.281 -1.122,0.487 l 0.569,1.14 c 0.603,-0.332 1.172,-0.499 1.711,-0.499 0.435,0 0.791,0.105 1.07,0.315 0.275,0.21 0.454,0.611 0.533,1.205 l 0.095,0.653 C 0.993,-4.24 0.736,-4.448 0.451,-4.603 c -0.285,-0.154 -0.59,-0.231 -0.914,-0.231 -0.658,0 -1.164,0.218 -1.52,0.653 -0.356,0.436 -0.535,1.026 -0.535,1.77 0,0.648 0.122,1.284 0.368,1.906 0.246,0.621 0.637,1.136 1.176,1.543 0.538,0.408 1.219,0.612 2.043,0.612 0.879,0 1.714,-0.21 2.505,-0.629" /></g><g
           transform="translate(171.6104,62.3219)"
           id="g120"><path
             id="path122"
             style="fill:#ff8000;fill-opacity:1;fill-rule:nonzero;stroke:none"
             d="m 0,0 -0.949,-0.937 c -0.245,0.237 -0.503,0.411 -0.772,0.521 -0.269,0.111 -0.566,0.167 -0.891,0.167 -0.396,0 -0.72,-0.092 -0.974,-0.273 -0.253,-0.182 -0.38,-0.432 -0.38,-0.749 0,-0.173 0.042,-0.318 0.125,-0.433 0.083,-0.114 0.223,-0.224 0.422,-0.326 0.198,-0.103 0.486,-0.222 0.867,-0.357 0.689,-0.229 1.212,-0.52 1.573,-0.872 0.36,-0.353 0.54,-0.834 0.54,-1.443 0,-0.451 -0.113,-0.893 -0.338,-1.324 -0.226,-0.432 -0.596,-0.792 -1.111,-1.08 -0.514,-0.29 -1.179,-0.434 -1.995,-0.434 -0.64,0 -1.203,0.106 -1.685,0.32 -0.484,0.214 -0.888,0.499 -1.211,0.856 l 1.008,0.997 c 0.522,-0.546 1.156,-0.82 1.901,-0.82 0.474,0 0.862,0.109 1.163,0.327 0.302,0.217 0.451,0.516 0.451,0.897 0,0.292 -0.098,0.529 -0.29,0.712 -0.194,0.182 -0.545,0.36 -1.051,0.535 -0.754,0.237 -1.302,0.537 -1.652,0.902 -0.348,0.364 -0.522,0.823 -0.522,1.377 0,0.405 0.114,0.798 0.339,1.182 0.225,0.384 0.574,0.698 1.045,0.944 0.47,0.246 1.055,0.369 1.751,0.369 C -1.543,1.058 -0.665,0.705 0,0" /></g><g
           transform="translate(175.7441,58.7955)"
           id="g124"><path
             id="path126"
             style="fill:#ff8000;fill-opacity:1;fill-rule:nonzero;stroke:none"
             d="M 0,0 C 0.372,0.237 0.558,0.53 0.558,0.879 0.558,1.053 0.503,1.201 0.392,1.323 0.28,1.446 0.103,1.508 -0.143,1.508 -0.595,1.508 -0.948,1.317 -1.206,0.938 -1.463,0.558 -1.635,0.091 -1.723,-0.464 -0.946,-0.392 -0.372,-0.237 0,0 m 1.134,-0.79 c -0.741,-0.368 -1.72,-0.611 -2.94,-0.731 0.033,-0.815 0.424,-1.223 1.176,-1.223 0.27,0 0.534,0.048 0.796,0.143 0.261,0.095 0.538,0.242 0.831,0.44 l 0.618,-1.022 c -0.768,-0.553 -1.584,-0.831 -2.447,-0.831 -0.862,0 -1.522,0.236 -1.977,0.706 -0.456,0.472 -0.682,1.115 -0.682,1.93 0,0.633 0.118,1.259 0.356,1.876 0.237,0.618 0.616,1.133 1.14,1.544 C -1.473,2.454 -0.809,2.66 0,2.66 0.712,2.66 1.265,2.499 1.656,2.179 2.048,1.858 2.243,1.452 2.243,0.962 c 0,-0.8 -0.369,-1.384 -1.109,-1.752" /></g><g
           transform="translate(184.2695,60.6832)"
           id="g128"><path
             id="path130"
             style="fill:#ff8000;fill-opacity:1;fill-rule:nonzero;stroke:none"
             d="m 0,0 -0.831,-0.985 c -0.174,0.158 -0.352,0.273 -0.534,0.344 -0.183,0.071 -0.381,0.107 -0.594,0.107 -0.609,0 -1.048,-0.283 -1.312,-0.849 -0.265,-0.566 -0.399,-1.202 -0.399,-1.906 0,-0.451 0.09,-0.774 0.268,-0.968 0.178,-0.194 0.442,-0.291 0.79,-0.291 0.221,0 0.429,0.035 0.624,0.108 0.193,0.071 0.417,0.184 0.67,0.343 l 0.63,-1.104 c -0.673,-0.467 -1.382,-0.7 -2.125,-0.7 -0.816,0 -1.454,0.239 -1.914,0.718 -0.459,0.478 -0.688,1.134 -0.688,1.965 0,0.602 0.12,1.209 0.362,1.822 0.241,0.614 0.619,1.129 1.134,1.544 0.515,0.416 1.164,0.624 1.947,0.624 C -1.187,0.772 -0.53,0.515 0,0" /></g><g
           transform="translate(189.8037,54.9713)"
           id="g132"><path
             id="path134"
             style="fill:#ff8000;fill-opacity:1;fill-rule:nonzero;stroke:none"
             d="m 0,0 h -1.437 l 0.047,0.986 c -0.6,-0.784 -1.269,-1.175 -2.006,-1.175 -0.499,0 -0.878,0.135 -1.14,0.409 -0.261,0.273 -0.392,0.655 -0.392,1.145 0,0.144 0.011,0.29 0.035,0.44 l 0.629,4.489 h 1.663 L -3.194,2.043 C -3.21,1.885 -3.219,1.777 -3.219,1.722 c 0,-0.213 0.04,-0.362 0.12,-0.445 0.078,-0.084 0.202,-0.125 0.368,-0.125 0.245,0 0.48,0.101 0.707,0.303 0.225,0.201 0.452,0.477 0.681,0.825 l 0.56,4.014 h 1.662 z" /></g><g
           transform="translate(196.4297,61.3482)"
           id="g136"><path
             id="path138"
             style="fill:#ff8000;fill-opacity:1;fill-rule:nonzero;stroke:none"
             d="m 0,0 -0.475,-1.627 c -0.19,0.048 -0.368,0.071 -0.534,0.071 -0.364,0 -0.672,-0.154 -0.921,-0.463 -0.249,-0.308 -0.48,-0.755 -0.694,-1.341 L -3.04,-6.377 h -1.662 l 0.878,6.294 h 1.438 l -0.037,-1.199 c 0.214,0.435 0.482,0.773 0.802,1.014 C -1.3,-0.025 -0.97,0.096 -0.63,0.096 -0.423,0.096 -0.213,0.063 0,0" /></g><g
           transform="translate(199.4277,64.2633)"
           id="g140"><path
             id="path142"
             style="fill:#ff8000;fill-opacity:1;fill-rule:nonzero;stroke:none"
             d="m 0,0 c 0.163,-0.162 0.243,-0.37 0.243,-0.623 0,-0.309 -0.106,-0.57 -0.319,-0.783 -0.214,-0.214 -0.481,-0.322 -0.796,-0.322 -0.277,0 -0.5,0.083 -0.666,0.249 -0.166,0.167 -0.249,0.381 -0.249,0.642 0,0.301 0.109,0.557 0.326,0.767 0.219,0.209 0.486,0.314 0.802,0.314 C -0.382,0.244 -0.162,0.163 0,0 m -1.134,-9.292 h -1.662 l 0.879,6.294 h 1.662 z" /></g><g
           transform="translate(202.2832,56.9547)"
           id="g144"><path
             id="path146"
             style="fill:#ff8000;fill-opacity:1;fill-rule:nonzero;stroke:none"
             d="m 0,0 c -0.016,-0.143 -0.023,-0.242 -0.023,-0.297 0,-0.19 0.037,-0.324 0.112,-0.404 0.076,-0.079 0.2,-0.118 0.375,-0.118 0.229,0 0.482,0.075 0.76,0.225 L 1.675,-1.71 C 1.421,-1.86 1.152,-1.976 0.866,-2.055 0.582,-2.133 0.302,-2.173 0.024,-2.173 c -0.57,0.008 -1,0.154 -1.289,0.44 -0.289,0.285 -0.433,0.7 -0.433,1.246 0,0.159 0.012,0.325 0.036,0.499 l 0.439,3.111 h -0.915 l 0.156,1.188 h 0.997 L -0.593,5.724 0.819,5.89 0.605,4.311 H 2.042 L 1.698,3.123 H 0.439 Z" /></g><g
           transform="translate(208.1494,54.9361)"
           id="g148"><path
             id="path150"
             style="fill:#ff8000;fill-opacity:1;fill-rule:nonzero;stroke:none"
             d="m 0,0 c -0.349,-0.784 -0.829,-1.394 -1.442,-1.829 -0.615,-0.436 -1.383,-0.685 -2.31,-0.748 L -3.8,-1.366 c 0.61,0.079 1.073,0.224 1.39,0.433 0.316,0.21 0.605,0.541 0.866,0.993 L -2.161,0.035 -3.206,6.329 h 1.734 l 0.523,-5.166 2.03,5.166 h 1.733 z" /></g><g
           transform="translate(220.4043,61.8228)"
           id="g152"><path
             id="path154"
             style="fill:#ff8000;fill-opacity:1;fill-rule:nonzero;stroke:none"
             d="M 0,0 H -2.055 L -3.016,-6.852 H -4.737 L -3.775,0 h -2.15 l 0.19,1.366 H 0.38 Z" /></g><g
           transform="translate(221.9121,59.2877)"
           id="g156"><path
             id="path158"
             style="fill:#ff8000;fill-opacity:1;fill-rule:nonzero;stroke:none"
             d="m 0,0 c -0.245,-0.605 -0.367,-1.26 -0.367,-1.965 0,-0.443 0.079,-0.767 0.236,-0.973 0.159,-0.207 0.404,-0.309 0.737,-0.309 0.413,0 0.738,0.156 0.98,0.469 0.241,0.312 0.41,0.688 0.505,1.128 0.095,0.439 0.141,0.865 0.141,1.276 0,0.443 -0.08,0.768 -0.242,0.975 C 1.827,0.806 1.583,0.909 1.26,0.909 0.665,0.909 0.245,0.606 0,0 M 3.267,1.467 C 3.717,1 3.943,0.358 3.943,-0.457 3.943,-1.091 3.831,-1.716 3.604,-2.333 3.379,-2.951 3.009,-3.467 2.494,-3.883 1.98,-4.299 1.314,-4.506 0.499,-4.506 c -0.815,0 -1.449,0.235 -1.9,0.706 -0.451,0.472 -0.676,1.122 -0.676,1.954 0,0.633 0.112,1.256 0.338,1.87 0.225,0.614 0.597,1.124 1.117,1.532 0.518,0.408 1.182,0.612 1.988,0.612 0.816,0 1.449,-0.234 1.901,-0.701" /></g><g
           transform="translate(229.4541,59.8053)"
           id="g160"><path
             id="path162"
             style="fill:#ff8000;fill-opacity:1;fill-rule:nonzero;stroke:none"
             d="m 0,0 c -0.277,-0.285 -0.48,-0.642 -0.607,-1.069 -0.125,-0.428 -0.189,-0.864 -0.189,-1.307 0,-0.419 0.074,-0.724 0.226,-0.914 0.15,-0.189 0.347,-0.285 0.592,-0.285 0.453,0 0.903,0.316 1.355,0.95 L 1.828,0.296 C 1.574,0.384 1.313,0.427 1.045,0.427 0.625,0.427 0.276,0.284 0,0 M 3.574,1.021 2.766,-4.43 C 2.615,-5.499 2.281,-6.271 1.763,-6.745 1.243,-7.221 0.51,-7.458 -0.439,-7.458 c -0.382,0 -0.78,0.06 -1.195,0.178 -0.415,0.119 -0.79,0.281 -1.122,0.487 l 0.57,1.14 c 0.601,-0.332 1.171,-0.499 1.709,-0.499 0.436,0 0.792,0.105 1.07,0.315 0.277,0.21 0.455,0.611 0.535,1.205 l 0.095,0.653 C 0.992,-4.24 0.735,-4.448 0.45,-4.603 0.166,-4.757 -0.14,-4.834 -0.464,-4.834 c -0.657,0 -1.164,0.218 -1.52,0.653 -0.357,0.436 -0.535,1.026 -0.535,1.77 0,0.648 0.123,1.284 0.369,1.906 0.246,0.621 0.637,1.136 1.175,1.543 0.538,0.408 1.22,0.612 2.042,0.612 0.879,0 1.714,-0.21 2.507,-0.629" /></g><g
           transform="translate(237.5762,58.7955)"
           id="g164"><path
             id="path166"
             style="fill:#ff8000;fill-opacity:1;fill-rule:nonzero;stroke:none"
             d="m 0,0 c 0.372,0.237 0.558,0.53 0.558,0.879 0,0.174 -0.055,0.322 -0.166,0.444 -0.111,0.123 -0.289,0.185 -0.535,0.185 -0.452,0 -0.805,-0.191 -1.063,-0.57 C -1.462,0.558 -1.635,0.091 -1.723,-0.464 -0.946,-0.392 -0.372,-0.237 0,0 m 1.134,-0.79 c -0.74,-0.368 -1.72,-0.611 -2.94,-0.731 0.033,-0.815 0.424,-1.223 1.176,-1.223 0.27,0 0.535,0.048 0.796,0.143 0.262,0.095 0.538,0.242 0.831,0.44 l 0.618,-1.022 c -0.767,-0.553 -1.583,-0.831 -2.446,-0.831 -0.863,0 -1.523,0.236 -1.978,0.706 -0.455,0.472 -0.682,1.115 -0.682,1.93 0,0.633 0.118,1.259 0.356,1.876 0.238,0.618 0.616,1.133 1.141,1.544 C -1.473,2.454 -0.808,2.66 0,2.66 0.712,2.66 1.265,2.499 1.656,2.179 2.049,1.858 2.244,1.452 2.244,0.962 c 0,-0.8 -0.37,-1.384 -1.11,-1.752" /></g><g
           transform="translate(242.7412,56.9547)"
           id="g168"><path
             id="path170"
             style="fill:#ff8000;fill-opacity:1;fill-rule:nonzero;stroke:none"
             d="m 0,0 c -0.017,-0.143 -0.023,-0.242 -0.023,-0.297 0,-0.19 0.036,-0.324 0.112,-0.404 0.076,-0.079 0.2,-0.118 0.375,-0.118 0.229,0 0.482,0.075 0.759,0.225 L 1.675,-1.71 C 1.421,-1.86 1.152,-1.976 0.866,-2.055 0.582,-2.133 0.302,-2.173 0.024,-2.173 c -0.57,0.008 -1,0.154 -1.289,0.44 -0.289,0.285 -0.433,0.7 -0.433,1.246 0,0.159 0.012,0.325 0.035,0.499 l 0.439,3.111 h -0.914 l 0.156,1.188 h 0.997 L -0.594,5.724 0.819,5.89 0.605,4.311 H 2.042 L 1.698,3.123 H 0.439 Z" /></g><g
           transform="translate(250.834,61.0514)"
           id="g172"><path
             id="path174"
             style="fill:#ff8000;fill-opacity:1;fill-rule:nonzero;stroke:none"
             d="m 0,0 c 0.257,-0.27 0.386,-0.649 0.386,-1.14 0,-0.174 -0.008,-0.308 -0.025,-0.404 L -0.279,-6.08 H -1.93 l 0.594,4.216 c 0.016,0.158 0.024,0.257 0.024,0.297 0,0.387 -0.15,0.582 -0.452,0.582 -0.513,0 -1.033,-0.519 -1.554,-1.556 l -0.5,-3.539 h -1.651 l 1.236,8.8 1.673,0.177 -0.533,-3.764 c 0.237,0.388 0.533,0.696 0.89,0.927 0.356,0.229 0.732,0.344 1.128,0.344 C -0.616,0.404 -0.257,0.27 0,0" /></g><g
           transform="translate(255.9346,58.7955)"
           id="g176"><path
             id="path178"
             style="fill:#ff8000;fill-opacity:1;fill-rule:nonzero;stroke:none"
             d="M 0,0 C 0.372,0.237 0.558,0.53 0.558,0.879 0.558,1.053 0.503,1.201 0.392,1.323 0.28,1.446 0.103,1.508 -0.144,1.508 -0.595,1.508 -0.948,1.317 -1.206,0.938 -1.463,0.558 -1.635,0.091 -1.723,-0.464 -0.946,-0.392 -0.372,-0.237 0,0 m 1.134,-0.79 c -0.741,-0.368 -1.72,-0.611 -2.94,-0.731 0.033,-0.815 0.424,-1.223 1.176,-1.223 0.27,0 0.534,0.048 0.796,0.143 0.261,0.095 0.538,0.242 0.831,0.44 l 0.618,-1.022 c -0.768,-0.553 -1.584,-0.831 -2.446,-0.831 -0.863,0 -1.523,0.236 -1.978,0.706 -0.456,0.472 -0.682,1.115 -0.682,1.93 0,0.633 0.118,1.259 0.356,1.876 0.237,0.618 0.616,1.133 1.14,1.544 C -1.473,2.454 -0.809,2.66 0,2.66 0.712,2.66 1.265,2.499 1.656,2.179 2.048,1.858 2.243,1.452 2.243,0.962 c 0,-0.8 -0.369,-1.384 -1.109,-1.752" /></g><g
           transform="translate(263.7363,61.3482)"
           id="g180"><path
             id="path182"
             style="fill:#ff8000;fill-opacity:1;fill-rule:nonzero;stroke:none"
             d="m 0,0 -0.476,-1.627 c -0.188,0.048 -0.367,0.071 -0.534,0.071 -0.364,0 -0.67,-0.154 -0.919,-0.463 C -2.18,-2.327 -2.41,-2.774 -2.625,-3.36 L -3.04,-6.377 h -1.662 l 0.878,6.294 h 1.437 l -0.035,-1.199 c 0.213,0.435 0.481,0.773 0.801,1.014 0.32,0.243 0.651,0.364 0.992,0.364 C -0.424,0.096 -0.214,0.063 0,0" /></g></g></g></g></svg>